<svg width="16" height="16" viewBox="0 0 16 16" fill="none" xmlns="http://www.w3.org/2000/svg">
<g id="Arrow-rotate">
<path id="Primary" d="M12.05 6.27789C11.38 4.70289 9.8175 3.60039 8 3.60039C7.0075 3.60039 6.055 3.99539 5.3525 4.69789L4.0475 6.00039H5.4C5.7325 6.00039 6 6.26789 6 6.60039C6 6.93289 5.7325 7.20039 5.4 7.20039H2.6C2.2675 7.20039 2 6.93289 2 6.60039V3.80039C2 3.46789 2.2675 3.20039 2.6 3.20039C2.9325 3.20039 3.2 3.46789 3.2 3.80039V5.15289L4.5025 3.85039C5.43 2.92039 6.6875 2.40039 8 2.40039C10.315 2.40039 12.3025 3.80539 13.155 5.80789C13.285 6.11289 13.1425 6.46539 12.8375 6.59539C12.5325 6.72539 12.18 6.58289 12.05 6.27789ZM2.85 10.2029C2.72 9.89789 2.86 9.54539 3.165 9.41539C3.47 9.28539 3.8225 9.42539 3.9525 9.73039C4.625 11.3029 6.185 12.4004 8 12.4004C8.9925 12.4004 9.945 12.0054 10.6475 11.3029L11.9525 10.0004H10.6C10.2675 10.0004 10 9.73289 10 9.40039C10 9.06789 10.2675 8.80039 10.6 8.80039H13.4C13.7325 8.80039 14 9.06789 14 9.40039V12.2004C14 12.5329 13.7325 12.8004 13.4 12.8004C13.0675 12.8004 12.8 12.5329 12.8 12.2004V10.8479L11.4975 12.1504C10.57 13.0804 9.3125 13.6004 8 13.6004C5.6875 13.6004 3.705 12.2004 2.85 10.2029Z" fill="white"/>
</g>
</svg>
