<svg width="16" height="16" viewBox="0 0 16 16" fill="none" xmlns="http://www.w3.org/2000/svg">
<g id="Arrow-rotate">
<path id="Primary" d="M3.95 6.27789C4.62 4.70289 6.1825 3.60039 8 3.60039C8.9925 3.60039 9.945 3.99539 10.6475 4.69789L11.9525 6.00039H10.6C10.2675 6.00039 10 6.26789 10 6.60039C10 6.93289 10.2675 7.20039 10.6 7.20039H13.4C13.7325 7.20039 14 6.93289 14 6.60039V3.80039C14 3.46789 13.7325 3.20039 13.4 3.20039C13.0675 3.20039 12.8 3.46789 12.8 3.80039V5.15289L11.4975 3.84789C10.57 2.92039 9.3125 2.40039 8 2.40039C5.685 2.40039 3.6975 3.80539 2.845 5.80789C2.715 6.11289 2.8575 6.46539 3.1625 6.59539C3.4675 6.72539 3.82 6.58289 3.95 6.27789ZM13.15 10.2029C13.28 9.89789 13.14 9.54539 12.835 9.41539C12.53 9.28539 12.1775 9.42539 12.0475 9.73039C11.375 11.3029 9.815 12.4004 8 12.4004C7.0075 12.4004 6.055 12.0054 5.3525 11.3029L4.0475 10.0004H5.4C5.7325 10.0004 6 9.73289 6 9.40039C6 9.06789 5.7325 8.80039 5.4 8.80039H2.6C2.2675 8.80039 2 9.06789 2 9.40039V12.2004C2 12.5329 2.2675 12.8004 2.6 12.8004C2.9325 12.8004 3.2 12.5329 3.2 12.2004V10.8479L4.5025 12.1504C5.43 13.0804 6.6875 13.6004 8 13.6004C10.3125 13.6004 12.295 12.2004 13.15 10.2029Z" fill="#CCCCCC"/>
</g>
</svg>
