<svg width="16" height="16" viewBox="0 0 16 16" fill="none" xmlns="http://www.w3.org/2000/svg">
<g id="car-side">
<path id="Primary" d="M4.2825 3.60039H5.6V4.00039V6.00039V6.40039H2.485L3.3525 4.22789C3.5075 3.85039 3.875 3.60039 4.2825 3.60039ZM6.8 6.40039V6.00039V4.00039V3.60039H8.83C9.135 3.60039 9.42 3.73789 9.61 3.97539L11.55 6.40039H6.8ZM13.1 6.41539L10.55 3.22539C10.1325 2.70289 9.5 2.40039 8.8325 2.40039H4.2825C3.3825 2.40039 2.575 2.94789 2.24 3.78289L1.17 6.45789C0.495 6.64539 0 7.26539 0 8.00039V10.8004C0 11.2429 0.3575 11.6004 0.8 11.6004H1.6325C1.8225 12.7354 2.81 13.6004 4 13.6004C5.19 13.6004 6.1775 12.7354 6.3675 11.6004H9.6325C9.8225 12.7354 10.81 13.6004 12 13.6004C13.19 13.6004 14.1775 12.7354 14.3675 11.6004H15.2C15.6425 11.6004 16 11.2429 16 10.8004V9.60039C16 7.93289 14.7275 6.56539 13.1 6.41539ZM10.8675 10.8004C10.9184 10.6498 10.9988 10.5108 11.1039 10.3915C11.209 10.2722 11.3367 10.175 11.4797 10.1055C11.6227 10.036 11.778 9.99564 11.9368 9.9867C12.0955 9.97776 12.2544 10.0004 12.4043 10.0534C12.5542 10.1064 12.692 10.1887 12.8099 10.2954C12.9277 10.4021 13.0231 10.5312 13.0907 10.6752C13.1582 10.8191 13.1964 10.975 13.2032 11.1338C13.2099 11.2927 13.1851 11.4513 13.13 11.6004C13.0791 11.751 12.9987 11.89 12.8936 12.0093C12.7885 12.1285 12.6608 12.2258 12.5178 12.2953C12.3748 12.3647 12.2195 12.4051 12.0607 12.4141C11.902 12.423 11.7431 12.4003 11.5932 12.3473C11.4433 12.2943 11.3055 12.2121 11.1876 12.1054C11.0698 11.9986 10.9744 11.8696 10.9068 11.7256C10.8393 11.5817 10.8011 11.4258 10.7943 11.267C10.7876 11.1081 10.8124 10.9495 10.8675 10.8004ZM14.2625 10.4004C13.9325 9.46789 13.045 8.80039 12 8.80039C10.955 8.80039 10.065 9.46789 9.7375 10.4004H6.2625C5.9325 9.46789 5.045 8.80039 4 8.80039C2.955 8.80039 2.065 9.46789 1.7375 10.4004H1.2V8.00039C1.2 7.78039 1.38 7.60039 1.6 7.60039H12.8C13.905 7.60039 14.8 8.49539 14.8 9.60039V10.4004H14.2625ZM4 10.0004C4.31826 10.0004 4.62348 10.1268 4.84853 10.3519C5.07357 10.5769 5.2 10.8821 5.2 11.2004C5.2 11.5187 5.07357 11.8239 4.84853 12.0489C4.62348 12.274 4.31826 12.4004 4 12.4004C3.68174 12.4004 3.37652 12.274 3.15147 12.0489C2.92643 11.8239 2.8 11.5187 2.8 11.2004C2.8 10.8821 2.92643 10.5769 3.15147 10.3519C3.37652 10.1268 3.68174 10.0004 4 10.0004Z" fill="#CCCCCC"/>
</g>
</svg>
