<svg width="15" height="15" viewBox="0 0 15 15" fill="none" xmlns="http://www.w3.org/2000/svg">
<g id="Chevron" clip-path="url(#clip0_14808_1860)">
<g id="Layer 2">
<g id="arrow-ios-upward">
<path id="Vector" d="M9.37968 3.75158C9.37996 3.89761 9.32911 4.03913 9.23593 4.15158L6.43593 7.50158L9.13593 10.8578C9.18785 10.9218 9.22662 10.9953 9.25001 11.0743C9.27341 11.1532 9.28096 11.236 9.27225 11.3179C9.26354 11.3998 9.23873 11.4792 9.19925 11.5515C9.15976 11.6237 9.10638 11.6875 9.04218 11.7391C8.97825 11.791 8.90469 11.8298 8.82573 11.8532C8.74677 11.8766 8.66396 11.8841 8.58207 11.8754C8.50017 11.8667 8.42081 11.8419 8.34854 11.8024C8.27626 11.7629 8.21251 11.7095 8.16093 11.6453L5.14218 7.89533C5.05025 7.78349 5 7.64322 5 7.49845C5 7.35369 5.05025 7.21341 5.14218 7.10158L8.26718 3.35158C8.31965 3.28829 8.38409 3.23598 8.4568 3.19763C8.52952 3.15929 8.60909 3.13566 8.69095 3.12812C8.77281 3.12057 8.85535 3.12925 8.93386 3.15365C9.01236 3.17805 9.08527 3.2177 9.14843 3.27033C9.22013 3.32849 9.27805 3.4018 9.31803 3.48502C9.35802 3.56823 9.37907 3.65926 9.37968 3.75158Z" fill="#CCCCCC"/>
</g>
</g>
</g>
<defs>
<clipPath id="clip0_14808_1860">
<rect width="15" height="15" fill="white"/>
</clipPath>
</defs>
</svg>
