<svg width="15" height="15" viewBox="0 0 15 15" fill="none" xmlns="http://www.w3.org/2000/svg">
<g id="Chevron" clip-path="url(#clip0_14808_1855)">
<g id="Layer 2">
<g id="arrow-ios-upward">
<path id="Vector" d="M5.62423 11.2523C5.62394 11.1063 5.6748 10.9648 5.76798 10.8523L8.56798 7.50233L5.86798 4.14608C5.81606 4.08215 5.77729 4.00859 5.7539 3.92963C5.7305 3.85066 5.72294 3.76786 5.73165 3.68597C5.74037 3.60407 5.76518 3.52471 5.80466 3.45244C5.84414 3.38016 5.89752 3.31641 5.96173 3.26483C6.02566 3.21291 6.09922 3.17414 6.17818 3.15075C6.25714 3.12735 6.33995 3.11979 6.42184 3.12851C6.50373 3.13722 6.5831 3.16203 6.65537 3.20151C6.72764 3.241 6.7914 3.29437 6.84298 3.35858L9.86173 7.10858C9.95365 7.22041 10.0039 7.36069 10.0039 7.50545C10.0039 7.65022 9.95365 7.7905 9.86173 7.90233L6.73673 11.6523C6.68426 11.7156 6.61982 11.7679 6.5471 11.8063C6.47439 11.8446 6.39482 11.8682 6.31296 11.8758C6.2311 11.8833 6.14855 11.8747 6.07005 11.8503C5.99155 11.8259 5.91863 11.7862 5.85548 11.7336C5.78378 11.6754 5.72586 11.6021 5.68587 11.5189C5.64589 11.4357 5.62484 11.3446 5.62423 11.2523Z" fill="#CCCCCC"/>
</g>
</g>
</g>
<defs>
<clipPath id="clip0_14808_1855">
<rect width="15" height="15" fill="white"/>
</clipPath>
</defs>
</svg>
