<svg width="19" height="13" viewBox="0 0 19 13" fill="none" xmlns="http://www.w3.org/2000/svg">
<path id="Mask" fill-rule="evenodd" clip-rule="evenodd" d="M16.2857 3.875H2.24181V3C2.24181 2.51787 2.63504 2.125 3.11956 2.125H15.408C15.8925 2.125 16.2857 2.51787 16.2857 3V3.875ZM13.6525 9.125H11.897C11.4142 9.125 11.0192 8.73125 11.0192 8.25C11.0192 7.76875 11.4142 7.375 11.897 7.375H13.6525C14.1352 7.375 14.5302 7.76875 14.5302 8.25C14.5302 8.73125 14.1352 9.125 13.6525 9.125ZM8.38602 9.125H4.87504C4.39229 9.125 3.9973 8.73125 3.9973 8.25C3.9973 7.76875 4.39229 7.375 4.87504 7.375H8.38602C8.86877 7.375 9.26376 7.76875 9.26376 8.25C9.26376 8.73125 8.86877 9.125 8.38602 9.125ZM15.408 0.375H3.11956C1.66777 0.375 0.486328 1.55275 0.486328 3V10C0.486328 11.4473 1.66777 12.625 3.11956 12.625H15.408C16.8597 12.625 18.0412 11.4473 18.0412 10V3C18.0412 1.55275 16.8597 0.375 15.408 0.375Z" fill="url(#paint0_linear_14808_1952)"/>
<defs>
<linearGradient id="paint0_linear_14808_1952" x1="0.486328" y1="0.375" x2="18.9899" y2="2.03229" gradientUnits="userSpaceOnUse">
<stop stop-color="#E063C6"/>
<stop offset="1" stop-color="#E2524D"/>
</linearGradient>
</defs>
</svg>
