<svg width="13" height="12" viewBox="0 0 13 12" fill="none" xmlns="http://www.w3.org/2000/svg">
<path d="M12.1984 1.53742C12.5509 1.18492 12.5509 0.614922 12.1984 0.266172C11.8459 -0.0825782 11.2759 -0.0863282 10.9271 0.266172L6.46461 4.72867L1.99836 0.262422C1.64586 -0.0900781 1.07586 -0.0900781 0.727109 0.262422C0.378359 0.614922 0.374609 1.18492 0.727109 1.53367L5.18961 5.99617L0.723359 10.4624C0.370859 10.8149 0.370859 11.3849 0.723359 11.7337C1.07586 12.0824 1.64586 12.0862 1.99461 11.7337L6.45711 7.27117L10.9234 11.7374C11.2759 12.0899 11.8459 12.0899 12.1946 11.7374C12.5434 11.3849 12.5471 10.8149 12.1946 10.4662L7.73211 6.00367L12.1984 1.53742Z" fill="#9D9C9E"/>
</svg>
