<svg width="17" height="17" viewBox="0 0 17 17" fill="none" xmlns="http://www.w3.org/2000/svg">
<g id="Download">
<path id="Primary" d="M12.9629 14.2807C13.3162 14.2807 13.6004 14.0046 13.6004 13.6614C13.6004 13.3182 13.3162 13.0421 12.9629 13.0421H4.03789C3.68461 13.0421 3.40039 13.3182 3.40039 13.6614C3.40039 14.0046 3.68461 14.2807 4.03789 14.2807H12.9629ZM8.03555 10.7817C8.15508 10.9056 8.32508 10.9778 8.50039 10.9778C8.6757 10.9778 8.84305 10.9082 8.96523 10.7817L12.3652 7.27245C12.607 7.02216 12.5937 6.63252 12.3387 6.39771C12.0837 6.1629 11.6799 6.1758 11.4382 6.42352L9.13789 8.79744V6.64285V3.33999C9.13789 2.9968 8.85367 2.7207 8.50039 2.7207C8.14711 2.7207 7.86289 2.9968 7.86289 3.33999V6.64285V8.79744L5.56523 6.4261C5.32352 6.1758 4.91977 6.16548 4.66477 6.40029C4.40977 6.6351 4.39648 7.02732 4.6382 7.27503L8.0382 10.7843L8.03555 10.7817Z" fill="white"/>
</g>
</svg>
