<svg width="223" height="188" viewBox="0 0 223 188" fill="none" xmlns="http://www.w3.org/2000/svg">
<g id="Group 828">
<path id="Vector" d="M206.653 112.883C203.788 109.7 199.386 104.924 199.005 104.791C199.008 104.792 199.012 104.792 199.016 104.791L199.023 104.603C199.118 104.603 199.316 104.615 203.093 108.7C204.948 110.705 206.775 112.735 206.794 112.754L206.653 112.883Z" fill="#6CC6B7"/>
<path id="Vector_2" d="M182.603 0H7.47157C5.62163 0.00215768 3.84826 0.738865 2.54134 2.04816C1.23442 3.35745 0.500938 5.13216 0.502138 6.9821V117.303C0.500938 119.153 1.23442 120.927 2.54134 122.237C3.84826 123.546 5.62163 124.283 7.47157 124.285H182.603C184.453 124.283 186.227 123.546 187.534 122.236C188.841 120.926 189.574 119.151 189.572 117.3V6.9821C189.573 5.13216 188.84 3.35745 187.533 2.04816C186.226 0.738865 184.453 0.00215768 182.603 0Z" fill="#1C1C1C"/>
<path id="Vector_3" d="M65.909 44.4971H66.0175C76.1217 44.4971 84.4676 36.4017 84.6141 26.4694L66.0175 26.2125L65.909 44.4971Z" fill="#626262"/>
<path id="Vector_4" d="M91.0742 51.3394L91.1644 51.3808L91.1319 51.3403L91.0742 51.3394Z" fill="#3883C4"/>
<path id="Vector_5" d="M79.9503 37.4966H80.0107L79.9152 37.4497L79.9503 37.4966Z" fill="#3883C4"/>
<path id="Vector_6" d="M63.076 5.27747C52.8733 5.27747 44.4776 13.5312 44.4776 23.5621C44.4776 33.4953 52.7078 41.7047 62.8146 41.8439L63.076 23.5621H81.6745C81.6745 13.5312 73.2787 5.27747 63.076 5.27747Z" fill="#2C2C2D"/>
<path id="Vector_7" d="M51.1964 18.0439L51.2919 18.0764L51.2532 18.0376L51.1964 18.0439Z" fill="#3883C4"/>
<path id="Vector_8" d="M38.2314 75.6271C35.1564 78.3512 33.1875 82.4455 33.7247 87.3945C33.7842 87.9489 33.8726 88.4998 33.9897 89.045C33.9897 89.0586 33.9897 89.0713 33.9969 89.0848L47.6536 86.0044V83.3345L47.5795 71.9733C44.2458 71.9932 40.8416 73.3163 38.2314 75.6271Z" fill="#F0525F"/>
<path id="Vector_9" d="M38.2314 75.6271C35.1564 78.3512 33.1875 82.4455 33.7247 87.3945C33.7842 87.9489 33.8726 88.4998 33.9897 89.045C33.9897 89.0586 33.9897 89.0713 33.9969 89.0848L47.6536 86.0044V83.3345L47.5795 71.9733C44.2458 71.9932 40.8416 73.3163 38.2314 75.6271Z" fill="#232323"/>
<path id="Vector_10" d="M50.7139 72.0998C50.571 72.0853 50.4272 72.0717 50.2816 72.0618C50.1912 72.0545 50.1007 72.0455 50.0103 72.041C49.7389 72.0256 49.4676 72.0183 49.1882 72.0165H49.1122L49.1863 83.3778L49.2035 86.0477L62.8675 89.0322H62.8837C63.0924 88.0644 63.194 87.0766 63.1867 86.0866C63.17 83.9191 62.6759 81.7819 61.7396 79.8271C59.8295 75.8413 56.069 72.6424 50.7139 72.0998Z" fill="#F0525F"/>
<path id="Vector_11" d="M50.7139 72.0998C50.571 72.0853 50.4272 72.0717 50.2816 72.0618C50.1912 72.0545 50.1007 72.0455 50.0103 72.041C49.7389 72.0256 49.4676 72.0183 49.1882 72.0165H49.1122L49.1863 83.3778L49.2035 86.0477L62.8675 89.0322H62.8837C63.0924 88.0644 63.194 87.0766 63.1867 86.0866C63.17 83.9191 62.6759 81.7819 61.7396 79.8271C59.8295 75.8413 56.069 72.6424 50.7139 72.0998Z" fill="#2C2C2D"/>
<path id="Vector_12" d="M48.3883 87.4238L34.7316 90.5042C36.1334 96.7718 41.7146 101.457 48.3883 101.457C55.0981 101.457 60.7028 96.7257 62.0694 90.412L48.4063 87.4274L48.3883 87.4238Z" fill="#626262"/>
<path id="Vector_13" d="M163.713 185.872L163.323 187.637L183.604 187.209L183.26 185.032L163.713 185.872Z" fill="#1C1C1C"/>
<path id="Vector_14" d="M180.303 167.425L173.53 168.437C173.53 168.437 174.548 172.869 174.99 175.814C175.561 179.617 173.905 181.229 169.313 183.543C167.529 184.443 165.847 185.268 164.012 185.905C165.595 186.127 168.353 186.034 171.591 185.878C177.162 185.607 183.264 185.03 183.264 185.03C182.887 184.171 181.59 178.126 181.306 175.681C180.885 172.056 180.303 167.425 180.303 167.425Z" fill="#3B3B3C"/>
<path id="Vector_15" d="M173.529 168.44C173.529 168.44 174.546 172.871 174.988 175.816L181.304 175.683C180.882 172.055 180.301 167.428 180.301 167.428L173.529 168.44Z" fill="white"/>
<path id="Vector_16" d="M177.865 175.003C177.49 175.027 177.176 175.241 176.924 175.509C176.649 175.815 176.398 176.141 176.173 176.485C175.745 177.113 175.385 177.786 175.1 178.491C175.08 178.44 175.062 178.387 175.038 178.336C174.95 178.156 174.851 177.982 174.742 177.814C174.324 177.164 173.821 176.574 173.246 176.059C172.983 175.826 172.675 175.607 172.319 175.552C171.739 175.461 171.108 175.885 171.221 176.521C171.284 176.874 171.549 177.154 171.805 177.391C172.079 177.64 172.369 177.871 172.674 178.08C173.304 178.503 173.989 178.838 174.71 179.075C174.71 179.082 174.71 179.089 174.71 179.095C174.703 179.107 174.697 179.119 174.692 179.132C174.681 179.184 174.691 179.238 174.718 179.283C174.746 179.328 174.79 179.361 174.841 179.375C175.391 179.58 175.922 179.834 176.427 180.133C176.56 180.213 176.749 180.341 176.886 180.198C177.052 180.024 176.819 179.849 176.682 179.772C176.427 179.625 176.166 179.492 175.899 179.369C175.734 179.293 175.567 179.223 175.398 179.156C175.698 179.076 175.989 178.961 176.262 178.813C176.597 178.647 176.915 178.449 177.211 178.222C177.8 177.769 178.42 177.167 178.702 176.464C178.774 176.305 178.811 176.132 178.809 175.957C178.808 175.782 178.768 175.609 178.693 175.451C178.614 175.304 178.493 175.184 178.346 175.104C178.199 175.024 178.032 174.989 177.865 175.003ZM173.343 178.008C172.806 177.703 172.243 177.347 171.813 176.899C171.614 176.692 171.403 176.357 171.618 176.09C171.782 175.883 172.083 175.828 172.327 175.884C172.645 175.956 172.907 176.168 173.141 176.382C173.375 176.595 173.595 176.824 173.799 177.066C174.035 177.345 174.251 177.64 174.447 177.949C174.549 178.109 174.644 178.274 174.741 178.437C174.792 178.522 174.847 178.603 174.901 178.686C174.361 178.513 173.84 178.286 173.347 178.007L173.343 178.008ZM178.364 176.432C178.071 177.015 177.55 177.535 177.028 177.918C176.743 178.129 176.438 178.31 176.117 178.46C175.858 178.58 175.58 178.649 175.315 178.744C175.537 178.209 175.797 177.691 176.093 177.193C176.284 176.876 176.49 176.569 176.712 176.273C176.918 176.001 177.132 175.703 177.411 175.499C177.672 175.309 178.1 175.193 178.344 175.475C178.589 175.757 178.515 176.138 178.368 176.432H178.364Z" fill="#CCCCCC"/>
<path id="Vector_17" d="M176.207 181.172C176.116 181.111 176.018 181.059 175.923 181.005L175.374 180.686C175.002 180.47 174.624 180.264 174.248 180.053C174.071 179.954 173.93 180.222 174.099 180.324C174.461 180.55 174.816 180.776 175.179 180.999L175.706 181.318C175.867 181.415 176.093 181.618 176.289 181.535C176.314 181.527 176.336 181.512 176.351 181.491C176.366 181.47 176.375 181.445 176.375 181.418C176.37 181.367 176.352 181.317 176.322 181.274C176.293 181.231 176.253 181.196 176.207 181.172Z" fill="#CCCCCC"/>
<path id="Vector_18" d="M175.697 182.882C175.335 182.589 174.958 182.307 174.586 182.022C174.179 181.692 173.75 181.389 173.303 181.117C173.196 181.057 173.101 181.202 173.18 181.287C173.507 181.62 173.855 181.932 174.22 182.222C174.571 182.517 174.926 182.81 175.287 183.092C175.427 183.201 175.655 183.447 175.851 183.339C176.066 183.223 175.802 182.966 175.697 182.882Z" fill="#CCCCCC"/>
<path id="Vector_19" d="M173.589 183.671L172.828 182.947C172.544 182.676 172.257 182.412 171.965 182.149C171.941 182.13 171.91 182.121 171.879 182.123C171.848 182.126 171.819 182.139 171.798 182.162C171.776 182.184 171.764 182.213 171.763 182.244C171.761 182.275 171.771 182.305 171.791 182.329C172.25 182.853 172.723 183.363 173.196 183.874C173.311 183.998 173.447 184.194 173.641 184.122C173.677 184.107 173.707 184.08 173.727 184.047C173.747 184.013 173.755 183.974 173.751 183.935C173.748 183.819 173.667 183.745 173.589 183.671Z" fill="#CCCCCC"/>
<path id="Vector_20" d="M169.311 183.547C167.498 184.442 165.629 185.219 163.716 185.873C165.284 186.506 168.612 186.596 171.589 185.882C171.468 185.666 171.334 185.458 171.189 185.258C170.682 184.569 170.044 183.987 169.311 183.547Z" fill="#626262"/>
<path id="Vector_21" d="M179.855 179.396C178.569 179.658 178.03 181.548 179.418 182.119C179.667 182.215 179.939 182.242 180.202 182.195C180.466 182.148 180.712 182.03 180.913 181.853C181.935 180.942 181.286 179.106 179.855 179.396Z" fill="#CCCCCC"/>
<path id="Vector_22" d="M202.301 185.795L202.255 188L222.407 185.672L221.781 183.976L202.301 185.795Z" fill="#1C1C1C"/>
<path id="Vector_23" d="M209.254 175.545C209.293 172.56 209.706 168.038 209.706 168.038L202.858 167.955C202.858 167.955 202.909 172.618 202.981 176.27C203.028 178.732 202.56 184.896 202.304 185.798C202.304 185.798 208.426 185.54 213.983 185.056C217.208 184.771 219.957 184.488 221.497 184.053C219.592 183.671 217.814 183.082 215.925 182.433C211.058 180.761 209.202 179.389 209.254 175.545Z" fill="#3B3B3C"/>
<path id="Vector_24" d="M202.979 176.267L209.254 175.544C209.294 172.559 209.706 168.037 209.706 168.037L202.859 167.954C202.859 167.954 202.907 172.615 202.979 176.267Z" fill="white"/>
<path id="Vector_25" d="M211.86 174.918C211.516 175.022 211.24 175.28 211.01 175.546C210.758 175.841 210.527 176.153 210.318 176.481C210.111 176.803 209.926 177.14 209.766 177.488C209.681 177.67 209.606 177.856 209.542 178.046C209.525 178.1 209.514 178.154 209.502 178.207C209.124 177.548 208.677 176.93 208.169 176.366C207.899 176.056 207.605 175.766 207.291 175.501C207.006 175.27 206.666 175.101 206.291 175.127C206.123 175.136 205.961 175.194 205.826 175.293C205.691 175.393 205.587 175.53 205.529 175.688C205.476 175.854 205.46 176.03 205.482 176.204C205.504 176.377 205.564 176.544 205.656 176.692C206.031 177.351 206.727 177.862 207.374 178.23C207.699 178.415 208.04 178.568 208.395 178.687C208.686 178.796 208.99 178.871 209.299 178.909C209.141 179 208.984 179.09 208.831 179.189C208.584 179.346 208.342 179.514 208.108 179.693C207.984 179.789 207.776 179.993 207.963 180.145C208.119 180.268 208.289 180.116 208.41 180.021C208.87 179.655 209.361 179.331 209.879 179.053C209.927 179.032 209.966 178.994 209.988 178.945C210.009 178.897 210.011 178.842 209.993 178.792C209.987 178.78 209.979 178.769 209.97 178.759C209.97 178.752 209.97 178.745 209.97 178.738C210.652 178.404 211.286 177.978 211.853 177.472C212.127 177.222 212.383 176.955 212.621 176.671C212.843 176.406 213.067 176.088 213.081 175.729C213.105 175.084 212.422 174.751 211.86 174.918ZM208.487 178.314C208.149 178.21 207.822 178.072 207.511 177.902C206.943 177.594 206.355 177.149 205.986 176.611C205.8 176.34 205.68 175.958 205.876 175.659C206.08 175.346 206.52 175.403 206.805 175.555C207.109 175.719 207.36 175.984 207.601 176.227C207.861 176.49 208.107 176.767 208.339 177.056C208.7 177.509 209.028 177.987 209.32 178.487C209.044 178.429 208.759 178.397 208.487 178.314ZM212.54 176.185C212.174 176.687 211.665 177.117 211.174 177.491C210.721 177.835 210.234 178.131 209.72 178.375C209.762 178.284 209.806 178.194 209.844 178.103C209.919 177.929 209.991 177.753 210.071 177.58C210.223 177.248 210.398 176.926 210.593 176.616C210.763 176.349 210.949 176.093 211.152 175.85C211.357 175.606 211.589 175.361 211.893 175.246C212.128 175.156 212.436 175.171 212.624 175.354C212.873 175.595 212.71 175.953 212.54 176.185Z" fill="#CCCCCC"/>
<path id="Vector_26" d="M210.557 179.643C210.214 179.902 209.867 180.158 209.527 180.423L209.025 180.813C208.935 180.88 208.844 180.944 208.767 181.017C208.724 181.047 208.689 181.088 208.666 181.136C208.643 181.183 208.632 181.236 208.634 181.288C208.638 181.314 208.65 181.338 208.668 181.357C208.686 181.376 208.71 181.389 208.736 181.393C208.941 181.448 209.138 181.212 209.284 181.098L209.762 180.71C210.092 180.444 210.416 180.168 210.742 179.896C210.895 179.767 210.719 179.521 210.557 179.643Z" fill="#CCCCCC"/>
<path id="Vector_27" d="M211.646 180.568C211.239 180.897 210.855 181.254 210.496 181.636C210.167 181.969 209.834 182.299 209.512 182.639C209.422 182.736 209.193 183.027 209.422 183.115C209.631 183.195 209.823 182.92 209.947 182.793C210.267 182.464 210.58 182.126 210.887 181.786C211.21 181.449 211.512 181.093 211.791 180.719C211.857 180.624 211.743 180.494 211.646 180.568Z" fill="#CCCCCC"/>
<path id="Vector_28" d="M213.106 181.405C212.853 181.707 212.604 182.008 212.359 182.31C212.141 182.583 211.922 182.857 211.703 183.131C211.636 183.215 211.566 183.299 211.578 183.415C211.579 183.454 211.593 183.491 211.617 183.522C211.641 183.553 211.674 183.575 211.712 183.585C211.916 183.631 212.023 183.418 212.119 183.28C212.519 182.709 212.919 182.14 213.304 181.562C213.321 181.535 213.328 181.503 213.324 181.472C213.319 181.44 213.302 181.412 213.277 181.392C213.252 181.372 213.221 181.363 213.189 181.365C213.157 181.368 213.127 181.382 213.106 181.405Z" fill="#CCCCCC"/>
<path id="Vector_29" d="M214.292 184.382C214.175 184.6 214.07 184.825 213.979 185.055C217.026 185.358 220.31 184.815 221.779 183.976C219.795 183.589 217.838 183.073 215.921 182.432C215.254 182.967 214.7 183.63 214.292 184.382Z" fill="#626262"/>
<path id="Vector_30" d="M204.914 179.75C203.457 179.66 203.063 181.563 204.199 182.328C204.422 182.475 204.682 182.559 204.949 182.57C205.216 182.581 205.482 182.518 205.716 182.388C207.014 181.634 206.224 179.834 204.914 179.75Z" fill="#CCCCCC"/>
<path id="Vector_31" d="M152.219 68.5344L157.636 68.0107L157.747 57.9274C150.45 64.0213 152.219 68.5344 152.219 68.5344Z" fill="#142148"/>
<path id="Vector_32" d="M155.685 51.8467L149.271 55.4815C149.271 55.4815 150.877 59.5415 152.315 63.056C153.429 65.791 154.442 68.1931 154.508 68.0864C154.654 67.8431 157.604 65.5025 157.604 65.5025L158.634 55.7076L157.936 54.7896L155.685 51.8467Z" fill="white"/>
<path id="Vector_33" d="M152.316 63.0556C153.431 65.7905 154.443 68.1926 154.509 68.0859C154.655 67.8426 157.605 65.502 157.605 65.502L158.635 55.7072L157.937 54.7892L152.316 63.0556Z" fill="#CCCCCC"/>
<path id="Vector_34" d="M170.795 89.2597C165.762 117.378 168.504 148.456 170.131 174.345H182.346C184.209 162.733 185.791 150.766 186.999 138.312C188.065 127.315 188.835 115.937 189.233 104.089C189.254 103.513 189.272 102.928 189.29 102.348L190.064 80.7717L173.859 81.7422L170.795 89.2597Z" fill="#1C1C1C"/>
<path id="Vector_35" d="M205.507 81.7429L185.61 76.1672L187.379 97.2573C188.184 123.197 194.515 151.974 198.141 174.346L211.409 171.76C212.585 144.933 209.935 116.166 206.869 90.4696L205.507 81.7429Z" fill="#1C1C1C"/>
<path id="Vector_36" d="M182.664 34.6967L179.569 36.5327L173.967 80.9757C182.83 86.0124 192.287 85.3838 202.124 81.1376L191.582 34.2047C190.034 37.23 185.908 39.2034 182.664 34.6967Z" fill="url(#paint0_linear_1_1537)"/>
<path id="Vector_37" d="M162.394 50.9437C162.364 51.0269 162.332 51.1101 162.304 51.1933C161.541 53.4298 160.93 55.715 160.474 58.0334C160.101 59.9383 159.855 61.866 159.738 63.8036L171.315 64.9359C168.536 75.5004 166.733 87.0254 165.417 99.0324C170.775 99.8536 175.601 99.9368 179.715 99.0324C186.349 80.9323 186.644 53.3214 182.736 34.6542C170.262 36.7371 165.188 42.841 162.394 50.9437Z" fill="#626262"/>
<path id="Vector_38" d="M158.635 55.7068C157.842 60.8077 155.085 64.703 152.224 68.5359L158.039 77.0691C159.396 79.0588 161.385 80.0537 163.375 80.0401C165.22 80.0247 167.055 79.142 168.392 77.3703L171.678 73.0128L172.346 72.1247L173.781 60.4125L163.5 61.742C163.5 61.742 162.385 60.0905 158.635 55.7068Z" fill="#626262"/>
<path id="Vector_39" d="M158.459 55.8421L164.872 64.0479L165.22 63.7747L158.807 55.569L158.459 55.8421Z" fill="#767677"/>
<path id="Vector_40" d="M171.358 50.4813L168.173 77.3479L168.613 77.4L171.797 50.5333L171.358 50.4813Z" fill="#767677"/>
<path id="Vector_41" d="M168.393 77.3698L168.904 74.1618L169.509 67.2367C169.509 67.2367 165.195 72.6017 163.376 80.0396C165.221 80.0242 167.056 79.1415 168.393 77.3698Z" fill="#767677"/>
<path id="Vector_42" d="M162.306 51.1933C161.543 53.4298 160.932 55.7149 160.476 58.0334L164.99 63.8398C165.244 57.0413 163.249 52.5436 162.394 50.9437C162.363 51.0269 162.331 51.1101 162.306 51.1933Z" fill="#767677"/>
<path id="Vector_43" d="M188.803 62.4588C187.808 61.9514 186.654 61.4042 185.308 60.8118C184.064 60.2637 182.035 58.9948 180.953 58.7995C179.337 58.5065 172.389 58.3174 172.307 60.0051C172.26 60.9773 174.675 61.0904 176.433 61.0415C174.655 61.2152 172.215 61.6746 172.374 62.8567C172.478 63.6345 173.711 63.81 175.108 63.7512C174.113 64.0623 173.39 64.5272 173.594 65.2181C173.812 65.9471 175.541 66.0131 177.169 65.9055C175.994 66.1533 174.964 66.5657 175.133 67.2395C175.543 68.8675 179.797 66.3215 183.019 68.3583C185.456 69.8958 187.179 70.3615 188.489 70.4692C189.443 70.546 190.178 70.4348 190.816 70.4113C191.394 68.2714 191.449 65.9109 191.322 63.8787C190.63 63.4391 189.799 62.9652 188.803 62.4588Z" fill="white"/>
<path id="Vector_44" d="M180.142 65.5482C179.143 65.597 178.149 65.7179 177.167 65.9099C178.7 65.8032 180.142 65.5482 180.142 65.5482Z" fill="#F2C9AC"/>
<path id="Vector_45" d="M178.22 60.9361C178.145 60.9361 177.387 60.9488 176.439 61.0419C177.386 61.0148 178.142 60.9433 178.22 60.9361Z" fill="#F2C9AC"/>
<path id="Vector_46" d="M179.3 63.1364C179.3 63.1364 176.808 63.2196 175.108 63.7514C177.046 63.6682 179.3 63.1364 179.3 63.1364Z" fill="#F2C9AC"/>
<path id="Vector_47" d="M180.329 60.7765C179.613 60.7584 178.887 60.7349 178.172 60.7765C177.457 60.8181 176.741 60.8932 176.033 61.0053C174.297 61.2766 173.252 61.7288 173.32 61.7053C174.916 61.2215 177.476 61.018 178.191 60.9727C178.906 60.9275 179.617 60.8452 180.332 60.7991C180.35 60.8027 180.346 60.7765 180.329 60.7765Z" fill="#CCCCCC"/>
<path id="Vector_48" d="M180.542 63.3631C179.569 63.1307 176.735 63.2727 175.126 63.7249C175.058 63.7439 175.084 63.7683 175.155 63.762C176.059 63.6788 179.635 63.4192 180.543 63.3803C180.558 63.3839 180.555 63.3659 180.542 63.3631Z" fill="#CCCCCC"/>
<path id="Vector_49" d="M181.121 65.5503C179.855 65.392 178.42 65.5503 176.937 65.9582C176.869 65.9763 176.909 66.0107 176.98 66.0025C178.369 65.8406 179.457 65.7041 181.12 65.5992C181.127 65.5993 181.133 65.5968 181.137 65.5923C181.142 65.5878 181.145 65.5817 181.145 65.5752C181.145 65.5687 181.143 65.5624 181.138 65.5578C181.134 65.5531 181.127 65.5504 181.121 65.5503Z" fill="#CCCCCC"/>
<path id="Vector_50" d="M188.802 62.459C188.802 62.459 190.087 68.0664 188.489 70.4686C189.443 70.5454 190.178 70.4342 190.816 70.4107C191.394 68.2708 191.449 65.9103 191.321 63.8781C190.629 63.4394 189.798 62.9655 188.802 62.459Z" fill="#CCCCCC"/>
<path id="Vector_51" d="M182.783 56.8914C182.421 55.8296 181.326 55.5004 180.993 56.8841C180.66 58.2679 180.952 58.7997 180.952 58.7997C181.92 58.9751 185.947 61.4089 187.999 62.0556C187.951 61.9868 183.187 58.0653 182.783 56.8914Z" fill="white"/>
<path id="Vector_52" d="M183.529 126.866C183.529 126.866 184.917 131.569 187.02 138.311C188.086 127.315 189.738 116.146 187.834 104.547C187.092 106.415 183.529 126.866 183.529 126.866Z" fill="black"/>
<path id="Vector_53" d="M182.904 35.1156C182.904 35.1156 184.065 35.6655 187.503 35.9296C190.397 36.153 192.102 35.1156 192.102 35.1156V23.5146L182.904 24.7546V35.1156Z" fill="white"/>
<path id="Vector_54" d="M176.393 28.0432C176.394 28.3375 176.464 28.6274 176.599 28.8888C176.734 29.1502 176.93 29.3753 177.17 29.5454L180.849 32.1366C181.101 32.3167 181.396 32.429 181.704 32.4629C182.012 32.4968 182.324 32.4511 182.61 32.3301L189.452 29.4704C189.787 29.3294 190.073 29.0928 190.274 28.7902C190.475 28.4876 190.582 28.1324 190.582 27.7692V14.4742H176.393V28.0432Z" fill="white"/>
<path id="Vector_55" opacity="0.32" d="M176.393 21.3091V26.6533C177.094 26.6404 177.761 26.3532 178.251 25.8535C178.742 25.3538 179.017 24.6815 179.017 23.9812C179.017 23.2809 178.742 22.6086 178.251 22.1089C177.761 21.6092 177.094 21.322 176.393 21.3091Z" fill="#EBEBEC"/>
<path id="Vector_56" d="M181.821 24.1855H179.767C179.738 24.1856 179.71 24.1795 179.683 24.1678C179.657 24.1562 179.634 24.1391 179.615 24.1177C179.596 24.0963 179.581 24.0712 179.572 24.044C179.563 24.0167 179.56 23.9879 179.563 23.9594L180.16 18.1594C180.168 18.1075 180.196 18.0607 180.237 18.0286C180.279 17.9965 180.331 17.9816 180.384 17.987C180.436 17.9923 180.484 18.0175 180.518 18.0573C180.553 18.0971 180.57 18.1485 180.568 18.201L179.994 23.7758H181.821C181.849 23.774 181.878 23.7779 181.904 23.7873C181.931 23.7968 181.955 23.8116 181.975 23.8308C181.996 23.85 182.012 23.8732 182.023 23.899C182.035 23.9248 182.04 23.9526 182.04 23.9807C182.04 24.0088 182.035 24.0366 182.023 24.0624C182.012 24.0882 181.996 24.1114 181.975 24.1306C181.955 24.1498 181.931 24.1646 181.904 24.174C181.878 24.1835 181.849 24.1874 181.821 24.1855Z" fill="#CCCCCC"/>
<path id="Vector_57" d="M191.977 10.8593C190.695 3.42051 181.757 5.2203 176.29 7.78432C173.24 9.21421 173.468 13.6522 176.663 14.7167C179.13 15.5379 183.075 15.8074 189.386 14.6344C189.386 14.6344 187.848 19.4278 191.008 22.4006L194.129 20.3774L195.052 15.4728C195.244 14.4545 195.029 13.4016 194.454 12.5394C193.88 11.6772 192.99 11.0742 191.977 10.8593Z" fill="#1C1C1C"/>
<path id="Vector_58" d="M193.023 20.0904C192.354 20.089 191.699 20.2862 191.142 20.657C190.584 21.0278 190.15 21.5557 189.893 22.1737C189.635 22.7917 189.568 23.4721 189.697 24.1287C189.827 24.7853 190.149 25.3887 190.622 25.8625C191.094 26.3362 191.697 26.659 192.354 26.79C193.01 26.921 193.691 26.8543 194.309 26.5984C194.927 26.3424 195.456 25.9088 195.828 25.3522C196.2 24.7957 196.398 24.1414 196.398 23.472C196.399 23.0283 196.312 22.5889 196.142 22.1788C195.973 21.7688 195.724 21.3961 195.411 21.082C195.098 20.768 194.725 20.5188 194.316 20.3487C193.906 20.1785 193.467 20.0908 193.023 20.0904Z" fill="white"/>
<path id="Vector_59" d="M184.571 16.6595C184.586 17.4382 187.154 17.9465 187.284 17.2356C187.502 16.0581 184.549 15.4295 184.571 16.6595Z" fill="black"/>
<path id="Vector_60" d="M175.564 17.0905C175.919 17.7119 178.216 16.9793 178.006 16.348C177.659 15.3025 175 16.1065 175.564 17.0905Z" fill="black"/>
<path id="Vector_61" opacity="0.32" d="M186.832 26.4767C188.305 26.4767 189.499 25.2798 189.499 23.8033C189.499 22.3268 188.305 21.1298 186.832 21.1298C185.359 21.1298 184.165 22.3268 184.165 23.8033C184.165 25.2798 185.359 26.4767 186.832 26.4767Z" fill="#EBEBEC"/>
<path id="Vector_62" d="M184.033 19.0378C183.721 19.045 183.476 19.49 183.491 20.0272C183.505 20.5645 183.768 20.9977 184.08 20.9904C184.393 20.9832 184.638 20.5382 184.623 20.001C184.609 19.4638 184.347 19.0306 184.033 19.0378Z" fill="black"/>
<path id="Vector_63" d="M178.272 19.0378C177.958 19.045 177.714 19.49 177.729 20.0272C177.745 20.5645 178.006 20.9977 178.32 20.9904C178.634 20.9832 178.877 20.5382 178.863 20.001C178.848 19.4638 178.585 19.0306 178.272 19.0378Z" fill="black"/>
<path id="Vector_64" d="M181.618 27.7137C181.044 27.7052 180.486 27.5226 180.017 27.1901C179.976 27.1583 179.948 27.1119 179.939 27.0603C179.931 27.0086 179.942 26.9557 179.971 26.9123C180.001 26.8688 180.045 26.8382 180.096 26.8266C180.147 26.8151 180.201 26.8234 180.246 26.85C181.805 27.8982 183.021 26.8256 183.072 26.7795C183.113 26.745 183.165 26.7276 183.218 26.7309C183.271 26.7343 183.321 26.7581 183.357 26.7974C183.393 26.8366 183.412 26.8883 183.411 26.9415C183.409 26.9947 183.387 27.0452 183.349 27.0825C182.86 27.4823 182.25 27.7048 181.618 27.7137Z" fill="#CCCCCC"/>
<path id="Vector_65" d="M192.299 25.4826C192.267 25.4826 192.237 25.4755 192.209 25.4618C192.181 25.4482 192.156 25.4284 192.137 25.4039C191.853 25.0421 191.67 24.5628 191.594 23.9858C191.368 22.2809 192.965 21.6026 193.842 21.4823C193.894 21.4782 193.946 21.4941 193.987 21.5269C194.027 21.5598 194.054 21.607 194.061 21.6589C194.069 21.7108 194.056 21.7635 194.025 21.8062C193.995 21.8489 193.949 21.8783 193.898 21.8884C193.807 21.9002 191.771 22.2059 191.998 23.9315C192.065 24.4353 192.22 24.8459 192.459 25.1516C192.483 25.1817 192.497 25.218 192.502 25.2562C192.506 25.2944 192.499 25.333 192.482 25.3676C192.465 25.4021 192.439 25.4313 192.406 25.4516C192.374 25.4719 192.336 25.4827 192.298 25.4826H192.299Z" fill="#CCCCCC"/>
<path id="Vector_66" d="M191.795 24.1657C191.755 24.1657 191.716 24.154 191.683 24.1323C191.661 24.1176 191.641 24.0986 191.626 24.0764C191.611 24.0542 191.6 24.0291 191.594 24.0027C191.589 23.9763 191.589 23.9491 191.594 23.9226C191.599 23.8961 191.609 23.8708 191.624 23.8483C192.076 23.1564 192.639 23.0506 193.032 23.085C193.293 23.1092 193.545 23.1921 193.769 23.3273C193.811 23.3584 193.84 23.4044 193.849 23.4559C193.859 23.5075 193.848 23.5606 193.819 23.6045C193.791 23.6484 193.747 23.6798 193.696 23.6921C193.645 23.7045 193.591 23.6969 193.546 23.671C193.45 23.6095 192.6 23.1039 191.967 24.0726C191.948 24.1012 191.922 24.1247 191.892 24.1409C191.862 24.1572 191.829 24.1657 191.795 24.1657Z" fill="#CCCCCC"/>
<path id="Vector_67" d="M151.65 46.8267C150.249 46.342 150.107 44.4752 150.152 43.56C150.198 42.6447 149.61 42.1627 148.647 42.8573C147.683 43.5518 148.765 46.9769 148.765 46.9769L145.847 46.8738C145.847 46.8738 144.646 41.0855 143.586 41.1054C142.526 41.1253 142.915 43.1385 142.915 43.1385C141.898 40.5817 141.158 40.6279 140.597 40.8567C140.037 41.0855 141.624 45.9214 141.624 45.9214C141.624 45.9214 139.313 44.6688 138.031 44.7999C136.75 44.9311 135.916 45.5171 137.709 46.4396C139.501 47.3622 142.214 49.8113 142.214 49.8113C142.502 50.7415 142.929 51.6229 143.48 52.426C144.403 53.7717 147.632 53.59 148.273 53.9038C148.914 54.2176 149.4 55.8203 149.4 55.8203L155.684 51.8481C154.673 48.9259 153.05 47.3115 151.65 46.8267Z" fill="white"/>
<path id="Vector_68" d="M143.616 49.4491C143.598 49.4111 143.566 49.3469 142.712 43.1679L143.114 43.1118C143.444 45.5004 143.952 49.1208 143.994 49.3062L143.833 49.3432L143.616 49.4491Z" fill="#CCCCCC"/>
<path id="Vector_69" d="M146.046 46.8635L145.643 46.9136L145.965 49.4975L146.368 49.4474L146.046 46.8635Z" fill="#CCCCCC"/>
<path id="Vector_70" d="M151.795 50.5946C150.684 48.424 148.498 49.1249 148.405 49.1565L148.275 48.7722C148.3 48.7631 150.883 47.9175 152.157 50.4101L151.795 50.5946Z" fill="#CCCCCC"/>
<path id="Vector_71" d="M138.028 44.8037C136.747 44.934 135.912 45.5209 137.705 46.4435C139.497 47.366 142.21 49.8151 142.21 49.8151L141.62 45.9261C141.62 45.9261 139.309 44.6726 138.028 44.8037Z" fill="white"/>
<path id="Vector_72" d="M114.606 58.368H111.432V97.8829H114.606V58.368Z" fill="#1C1C1C"/>
<path id="Vector_73" d="M118.2 72.0982H114.607V97.8831H118.2V72.0982Z" fill="#626262"/>
<path id="Vector_74" d="M122.626 66.8234H119.786V97.9669H122.626V66.8234Z" fill="#1C1C1C"/>
<path id="Vector_75" d="M126.051 69.252H122.626V97.9672H126.051V69.252Z" fill="#626262"/>
<path id="Vector_76" d="M131.23 76.0329H127.805V97.7995H131.23V76.0329Z" fill="#1C1C1C"/>
<path id="Vector_77" d="M134.653 63.3082H131.228V97.7999H134.653V63.3082Z" fill="#626262"/>
<path id="Vector_78" d="M139.581 69.0846H136.406V97.9671H139.581V69.0846Z" fill="#626262"/>
<path id="Vector_79" d="M142.924 79.1309H139.582V97.9671H142.924V79.1309Z" fill="#1C1C1C"/>
<path id="Vector_80" d="M147.855 67.9957H144.262V97.8831H147.855V67.9957Z" fill="#626262"/>
<path id="Vector_81" d="M150.858 73.2706H147.851V97.8834H150.858V73.2706Z" fill="#1C1C1C"/>
<path id="Vector_82" d="M155.12 84.1541H152.196V98.0513H155.12V84.1541Z" fill="#626262"/>
<path id="Vector_83" d="M158.629 80.4706H155.121V98.0515H158.629V80.4706Z" fill="#1C1C1C"/>
<path id="Vector_84" d="M163.307 89.8466H160.049V98.0505H163.307V89.8466Z" fill="#626262"/>
<path id="Vector_85" d="M166.734 87.2507H163.309V98.0503H166.734V87.2507Z" fill="#1C1C1C"/>
<path id="Vector_86" d="M170.219 99.4747H111.068V100.381H170.219V99.4747Z" fill="#767677"/>
<path id="Vector_87" d="M120.876 37.1576C128.181 37.1576 134.103 31.2223 134.103 23.9007C134.103 16.5791 128.181 10.6437 120.876 10.6437C113.57 10.6437 107.648 16.5791 107.648 23.9007C107.648 31.2223 113.57 37.1576 120.876 37.1576Z" fill="#767677"/>
<path id="Vector_88" d="M107.648 23.9007C107.648 23.9812 107.659 24.059 107.66 24.1395L107.716 24.2408L120.537 24.3086L120.603 10.6583C117.141 10.7316 113.845 12.1594 111.423 14.6351C109.001 17.1108 107.646 20.4373 107.648 23.9007Z" fill="#202020"/>
<path id="Vector_89" d="M120.876 10.645C120.785 10.645 120.695 10.6568 120.604 10.6586L120.538 24.3089L134.064 23.1015C133.648 16.1547 127.911 10.645 120.876 10.645Z" fill="#9D9C9E"/>
<path id="Vector_90" d="M120.538 24.3087L129.77 33.6948C131.136 32.455 132.227 30.9432 132.973 29.2564C133.72 27.5697 134.105 25.7454 134.105 23.9008C134.105 23.6295 134.08 23.3672 134.064 23.1013L120.538 24.3087Z" fill="#2F2F2F"/>
<path id="Vector_91" d="M167.268 10.645H137.025C136.909 10.645 136.816 10.7386 136.816 10.8539V13.4957C136.816 13.6111 136.909 13.7047 137.025 13.7047H167.268C167.383 13.7047 167.477 13.6111 167.477 13.4957V10.8539C167.477 10.7386 167.383 10.645 167.268 10.645Z" fill="#202020"/>
<path id="Vector_92" d="M160.389 14.7917H137.058C136.963 14.7917 136.887 14.8686 136.887 14.9635V17.135C136.887 17.2299 136.963 17.3069 137.058 17.3069H160.389C160.484 17.3069 160.561 17.2299 160.561 17.135V14.9635C160.561 14.8686 160.484 14.7917 160.389 14.7917Z" fill="#767677"/>
<path id="Vector_93" d="M146.755 18.5983H136.983C136.891 18.5983 136.816 18.6732 136.816 18.7656V20.8784C136.816 20.9708 136.891 21.0457 136.983 21.0457H146.755C146.848 21.0457 146.923 20.9708 146.923 20.8784V18.7656C146.923 18.6732 146.848 18.5983 146.755 18.5983Z" fill="#9D9C9E"/>
<path id="Vector_94" d="M144.583 22.2015H137.058C136.963 22.2015 136.887 22.2784 136.887 22.3733V24.5448C136.887 24.6397 136.963 24.7167 137.058 24.7167H144.583C144.678 24.7167 144.755 24.6397 144.755 24.5448V22.3733C144.755 22.2784 144.678 22.2015 144.583 22.2015Z" fill="#2F2F2F"/>
<path id="Vector_95" d="M167.487 26.179H137.075C136.875 26.179 136.713 26.341 136.713 26.5408V37.7483C136.713 37.9481 136.875 38.1101 137.075 38.1101H167.487C167.687 38.1101 167.849 37.9481 167.849 37.7483V26.5408C167.849 26.341 167.687 26.179 167.487 26.179Z" fill="#CCCCCC"/>
<path id="Vector_96" d="M182.738 34.6571C182.738 34.6571 183.774 37.335 186.542 37.3947C189.309 37.4544 192.102 35.1174 192.102 35.1174C192.102 35.1174 185.48 33.9163 182.738 34.6571Z" fill="#EBEBEC"/>
<path id="Vector_97" d="M210.774 43.8506C209.862 41.9667 208.5 40.3758 206.82 39.2941C201.92 36.1476 197.071 34.5785 191.967 34.2149C190.339 48.2741 190.881 61.7833 192.309 74.5881C192.315 74.6179 192.318 74.6482 192.318 74.6785C193.223 82.7278 194.795 90.5148 197.112 97.9871C202.653 98.2359 207.487 97.7158 211.485 96.2895C210.852 91.9067 210.233 87.6976 209.53 83.4893C208.885 79.6329 208.164 75.7864 207.292 71.8224C207.009 70.5405 206.711 69.2442 206.399 67.9334L217.124 63.5678C215.796 57.1383 214.202 50.9204 210.774 43.8506Z" fill="#626262"/>
<path id="Vector_98" d="M192.309 74.588L192.247 74.6015C192.269 74.6287 192.296 74.6504 192.318 74.6775C197.382 80 203.295 82.8815 209.531 83.4883C208.885 79.6319 208.164 75.7854 207.292 71.8214L192.309 74.588Z" fill="#767677"/>
<path id="Vector_99" d="M201.538 63.8699C202.75 66.0161 206.693 63.396 206.693 63.396L204.482 50.6898C201.833 56.725 200.593 62.1931 201.538 63.8699Z" fill="#767677"/>
<path id="Vector_100" d="M217.121 63.5613L189.701 61.1375L187.969 74.1068L210.67 76.8689C215.446 77.4287 219.262 72.581 218.05 67.4855L217.121 63.5613Z" fill="#626262"/>
<path id="Vector_101" d="M189.731 60.9215L189.693 61.3631L206.72 62.8078L206.758 62.3663L189.731 60.9215Z" fill="#767677"/>
<path id="Vector_102" d="M182.9 35.1661L189.423 29.4628L182.9 32.1915V35.1661Z" fill="#CCCCCC"/>
<path id="Vector_103" d="M21.4672 171.293C21.4672 171.293 21.573 176.605 21.7295 180.071L27.7746 181.192C27.7403 178.36 27.9691 171.204 27.9691 171.204L21.4672 171.293Z" fill="white"/>
<path id="Vector_104" d="M30.4251 185.222L20.2052 186.006L19.8353 187.987C19.8353 187.987 30.2523 187.491 31.6261 187.656C33 187.821 38.0783 187.372 38.8416 187.212C39.6049 187.052 38.7629 185.73 38.7629 185.73L30.4251 185.222Z" fill="#1C1C1C"/>
<path id="Vector_105" d="M27.8856 179.768C27.8856 179.768 22.8624 180.155 21.3014 178.692L20.2062 186.006L31.3151 186.246C31.3151 186.246 37.013 187.31 38.7639 185.73C38.7639 185.73 29.329 183.497 27.8856 179.768Z" fill="#3B3B3C"/>
<path id="Vector_106" d="M30.7913 182.458L29.7861 183.642L30.0798 183.891L31.085 182.708L30.7913 182.458Z" fill="#CCCCCC"/>
<path id="Vector_107" d="M29.5135 181.806L28.6735 182.743L28.9603 183L29.8003 182.063L29.5135 181.806Z" fill="#CCCCCC"/>
<path id="Vector_108" d="M28.5978 180.814L27.4618 181.767L27.7093 182.062L28.8453 181.11L28.5978 180.814Z" fill="#CCCCCC"/>
<path id="Vector_109" d="M28.053 179.821L26.7765 180.365L26.9274 180.719L28.2039 180.176L28.053 179.821Z" fill="#CCCCCC"/>
<path id="Vector_110" d="M40.3729 167.831C40.3729 167.831 40.4787 173.144 40.6361 176.609L46.6803 177.73C46.646 174.899 46.8748 167.742 46.8748 167.742L40.3729 167.831Z" fill="white"/>
<path id="Vector_111" d="M49.3343 181.76L39.1143 182.544L38.7444 184.526C38.7444 184.526 49.1615 184.03 50.5353 184.195C51.9091 184.361 56.9883 183.91 57.7508 183.751C58.5132 183.592 57.6721 182.268 57.6721 182.268L49.3343 181.76Z" fill="#1C1C1C"/>
<path id="Vector_112" d="M46.7912 176.307C46.7912 176.307 41.7681 176.693 40.2071 175.23L39.1118 182.543L50.2208 182.784C50.2208 182.784 55.9186 183.849 57.6695 182.268C57.6695 182.268 48.2356 180.036 46.7912 176.307Z" fill="#3B3B3C"/>
<path id="Vector_113" d="M49.6971 178.997L48.6918 180.18L48.9855 180.43L49.9907 179.246L49.6971 178.997Z" fill="#CCCCCC"/>
<path id="Vector_114" d="M48.4232 178.344L47.5826 179.281L47.8695 179.538L48.7101 178.601L48.4232 178.344Z" fill="#CCCCCC"/>
<path id="Vector_115" d="M47.5035 177.353L46.3675 178.305L46.615 178.601L47.751 177.648L47.5035 177.353Z" fill="#CCCCCC"/>
<path id="Vector_116" d="M46.9622 176.359L45.6857 176.903L45.8366 177.257L47.1132 176.714L46.9622 176.359Z" fill="#CCCCCC"/>
<path id="Vector_117" d="M36.4874 43.5114L23.3571 39.1051L31.6126 91.5794L45.1364 90.0853C47.7013 87.9626 46.8005 73.5127 46.8005 73.5127C46.3573 53.6499 36.4874 43.5114 36.4874 43.5114Z" fill="white"/>
<path id="Vector_118" d="M36.0893 44.2584L33.8997 44.1517C33.8997 44.1517 32.061 45.4359 32.1189 45.8701C32.1768 46.3042 34.5075 47.4863 34.5075 47.4863C34.5075 47.4863 40.3608 61.4287 39.7368 69.3903C39.1127 77.3519 38.1034 80.1764 38.1034 80.1764L41.6741 84.8947L45.1172 78.3685C45.1172 78.3685 43.9143 56.6471 37.2062 46.3856L36.0893 44.2584Z" fill="url(#paint1_linear_1_1537)"/>
<path id="Vector_119" d="M35.0495 38.944L35.1571 42.2994L44.8344 58.1637C44.8344 58.1637 44.5242 48.1952 43.2752 43.8016C42.0262 39.4079 35.0495 38.944 35.0495 38.944Z" fill="#626262"/>
<path id="Vector_120" d="M55.108 57.3986C53.0278 57.67 50.4439 60.0974 50.4439 60.0974L52.3703 63.7069C52.7131 62.079 59.0078 60.7468 59.0078 60.7468L58.2463 61.7417C58.2463 61.7417 56.9693 62.2083 56.8264 62.8215C56.6835 63.4347 61.4317 62.212 61.4317 62.212L60.7642 57.1472C60.7642 57.1472 57.1909 57.1228 55.108 57.3986Z" fill="white"/>
<path id="Vector_121" d="M45.9118 68.0299C45.9118 68.0299 47.3335 74.5806 47.0224 77.2984C46.9754 77.7036 64.4967 70.2277 66.6899 68.2542L63.7143 62.6025L45.9118 68.0299Z" fill="#3B3B3C"/>
<path id="Vector_122" d="M65.9654 66.962C65.9654 66.962 68.7384 67.6856 70.4613 66.3669C72.1842 65.0483 74.6297 62.4454 74.6297 62.4454L64.3194 63.8101L65.9654 66.962Z" fill="white"/>
<path id="Vector_123" d="M51.6962 67.1664L61.6357 63.868L61.6366 62.183L51.2847 65.7338L51.6962 67.1664Z" fill="black"/>
<path id="Vector_124" d="M58.996 47.9641L61.4307 63.8954L78.2049 61.6742L76.2676 45.2807L58.996 47.9641Z" fill="black"/>
<path id="Vector_125" d="M32.6603 28.6937L23.9399 28.6729L24.7467 38.6016C24.6891 39.2499 24.7689 39.9031 24.981 40.5185C25.1931 41.1339 25.5326 41.6975 25.9774 42.1727C26.4223 42.6479 26.9624 43.0238 27.5624 43.276C28.1625 43.5281 28.809 43.6508 29.4597 43.636C30.1104 43.6212 30.7507 43.4693 31.3387 43.1902C31.9267 42.911 32.4491 42.5109 32.8719 42.016C33.2947 41.5211 33.6083 40.9426 33.7922 40.3182C33.9761 39.6939 34.0262 39.0377 33.9392 38.3927L32.6603 28.6937Z" fill="white"/>
<path id="Vector_126" d="M27.1616 33.8842L33.9383 38.3927L33.573 35.6215L27.1616 33.8842Z" fill="#F1F1F1"/>
<path id="Vector_127" d="M37.4601 18.3135L24.2402 20.0627L25.8682 32.4532C25.9124 32.7918 26.0556 33.1098 26.2799 33.3672C26.5042 33.6247 26.7996 33.8101 27.1289 33.9003L33.8542 35.7199C34.1352 35.7974 34.4314 35.8015 34.7144 35.732C34.9975 35.6625 35.2581 35.5217 35.4713 35.3229L38.5789 32.455C38.7824 32.2675 38.9379 32.0338 39.0324 31.7736C39.1268 31.5135 39.1574 31.2344 39.1215 30.96L37.4601 18.3135Z" fill="white"/>
<path id="Vector_128" d="M38.7118 27.8115L40.4302 26.9306L37.9603 22.1083L38.7118 27.8115Z" fill="white"/>
<path id="Vector_129" d="M22.658 25.5965C22.0343 25.6773 21.4485 25.9414 20.9749 26.3553C20.5013 26.7693 20.1612 27.3144 19.9976 27.9217C19.834 28.529 19.8543 29.1713 20.0559 29.767C20.2576 30.3628 20.6314 30.8854 21.1302 31.2686C21.629 31.6518 22.2303 31.8783 22.8579 31.9196C23.4855 31.9608 24.1113 31.8149 24.6559 31.5004C25.2006 31.1858 25.6396 30.7167 25.9175 30.1524C26.1954 29.5881 26.2996 28.9541 26.2169 28.3306C26.1066 27.4965 25.6699 26.7403 25.0027 26.2277C24.3356 25.7152 23.4923 25.4882 22.658 25.5965Z" fill="white"/>
<path id="Vector_130" d="M25.1439 29.5018C25.1048 29.502 25.0665 29.4899 25.0345 29.4674L22.6513 27.8232C22.6111 27.7936 22.5839 27.7494 22.5756 27.7001C22.5672 27.6508 22.5784 27.6002 22.6067 27.559C22.635 27.5178 22.6782 27.4892 22.7272 27.4792C22.7762 27.4693 22.8272 27.4788 22.8693 27.5058L25.2533 29.1509C25.287 29.1743 25.3124 29.2078 25.3257 29.2466C25.339 29.2853 25.3396 29.3274 25.3274 29.3665C25.3152 29.4057 25.2908 29.4399 25.2578 29.4642C25.2248 29.4886 25.1849 29.5017 25.1439 29.5018Z" fill="#CCCCCC"/>
<path id="Vector_131" d="M32.0991 22.0854C32.308 22.7312 34.6378 21.9416 34.5555 21.2145C34.4252 20.0659 31.7527 21.0146 32.0991 22.0854Z" fill="black"/>
<path id="Vector_132" opacity="0.32" d="M32.3034 25.3045C31.8105 25.3683 31.3477 25.577 30.9734 25.9041C30.5992 26.2312 30.3304 26.6619 30.2012 27.1418C30.0719 27.6217 30.0879 28.1292 30.2471 28.6C30.4064 29.0708 30.7018 29.4838 31.0958 29.7866C31.4899 30.0895 31.965 30.2686 32.461 30.3013C32.9569 30.334 33.4514 30.2189 33.8818 29.9704C34.3123 29.7219 34.6593 29.3513 34.8791 28.9055C35.0988 28.4597 35.1813 27.9587 35.1162 27.466C35.0292 26.8066 34.6842 26.2087 34.1569 25.8035C33.6295 25.3982 32.9629 25.2187 32.3034 25.3045Z" fill="#EBEBEC"/>
<path id="Vector_133" d="M38.7095 28.0041C38.6662 28.0054 38.6238 27.992 38.589 27.9662C38.5543 27.9404 38.5292 27.9036 38.5179 27.8618C38.5066 27.82 38.5098 27.7756 38.5268 27.7358C38.5438 27.6959 38.5738 27.663 38.6118 27.6423L40.1213 26.7515L37.7336 22.0901C37.7211 22.0675 37.7133 22.0426 37.7105 22.017C37.7078 21.9913 37.7103 21.9653 37.7178 21.9406C37.7254 21.9159 37.7378 21.8929 37.7544 21.8731C37.7709 21.8533 37.7913 21.837 37.8143 21.8252C37.8373 21.8135 37.8625 21.8064 37.8882 21.8046C37.914 21.8027 37.9399 21.8061 37.9643 21.8144C37.9888 21.8227 38.0113 21.8359 38.0306 21.8531C38.0498 21.8704 38.0654 21.8913 38.0764 21.9147L40.5473 26.737C40.5695 26.7807 40.5741 26.8313 40.5604 26.8783C40.5466 26.9254 40.5154 26.9654 40.4731 26.9903L38.8072 27.9734C38.778 27.9923 38.7442 28.0029 38.7095 28.0041Z" fill="#CCCCCC"/>
<path id="Vector_134" d="M34.6557 23.0109C34.3636 23.0425 34.17 23.4766 34.2252 23.9804C34.2804 24.4842 34.5607 24.8667 34.8538 24.8351C35.1468 24.8034 35.3395 24.3693 35.2852 23.8646C35.2309 23.36 34.9487 22.9792 34.6557 23.0109Z" fill="black"/>
<path id="Vector_135" d="M37.8939 30.7599L35.424 30.4162C35.8237 34.5349 37.8939 30.7599 37.8939 30.7599Z" fill="#EBEBEC"/>
<path id="Vector_136" d="M32.9864 42.3393L25.3468 37.7014L23.3571 39.1051L30.1981 46.5737L33.3048 43.4861L35.1326 43.3929L35.0485 38.9441L32.9864 42.3393Z" fill="#767677"/>
<path id="Vector_137" d="M23.3595 39.1051C23.3595 39.1051 9.44418 45.9669 10.7113 53.1624C11.9784 60.358 14.451 70.6502 18.0714 72.7205C21.6918 74.7907 25.7589 68.1622 25.5464 67.7652C25.3339 67.3681 23.3595 39.1051 23.3595 39.1051Z" fill="#626262"/>
<path id="Vector_138" d="M46.4123 86.4267L34.011 88.4698C34.011 88.4698 34.8575 144.975 35.1478 147.173C35.4382 149.37 38.7501 173.699 38.7501 173.699L50.9534 171.964C50.9534 171.964 54.402 149.214 53.5328 130.77C52.6637 112.326 46.4123 86.4267 46.4123 86.4267Z" fill="black"/>
<path id="Vector_139" d="M20.4691 89.7018C20.4691 89.7018 14.7442 99.2298 15.5853 102.249C15.5853 102.249 21.4359 136.242 20.7784 136.329C20.1209 136.416 18.01 166.645 19.5783 175.157L32.0846 174.819C32.0846 174.819 38.5728 142.693 38.4444 128.177C38.316 113.66 38.7103 87.8459 38.7103 87.8459L20.4691 89.7018Z" fill="black"/>
<path id="Vector_140" d="M38.2605 132.791L42.6279 122.389L38.8981 97.7249L38.2605 132.791Z" fill="#1C1C1C"/>
<path id="Vector_141" d="M12.8807 47.6274C8.02942 51.4413 14.8207 60.651 16.5156 73.5091C18.2104 86.3672 13.5183 103.241 13.5183 103.241L29.3203 99.5635L36.3123 76.4376C41.624 57.4991 23.3593 39.1051 23.3593 39.1051C23.3593 39.1051 17.7329 43.8144 12.8807 47.6274Z" fill="#626262"/>
<path id="Vector_142" d="M49.1771 58.0817L29.4698 66.8356L25.3728 59.4492C24.5742 58.4643 11.7812 54.5093 11.7812 54.5093L16.2672 70.7635C16.2672 70.7635 22.8468 77.524 26.1542 79.7615C29.4617 81.999 52.8608 65.7204 52.8608 65.7204L52.2168 64.22L49.1771 58.0817Z" fill="#626262"/>
<path id="Vector_143" d="M30.3393 63.0244L35.2584 64.0726L27.0273 54.8259L30.3393 63.0244Z" fill="#626262"/>
<path id="Vector_144" d="M24.3135 78.9736C21.4193 78.7927 16.2641 70.7669 16.2641 70.7669C18.0938 75.8371 16.1791 89.8203 16.1791 89.8203L34.3353 82.461L36.3105 76.4376C36.3105 76.4376 27.2067 79.1545 24.3135 78.9736Z" fill="#626262"/>
<path id="Vector_145" d="M33.7352 11.8232C33.7352 11.8232 31.4289 9.42109 27.8565 10.2857C24.284 11.1503 21.8421 13.368 22.2943 16.7215C22.2943 16.7215 18.4506 18.9645 19.7167 22.9078C20.9829 26.851 21.4804 26.0461 21.4804 26.0461C21.4804 26.0461 24.0579 24.7889 25.4598 26.6918C25.4598 26.6918 27.4088 23.3319 25.3693 20.0715C25.3693 20.0715 29.3488 22.0694 31.5194 19.6193C31.5194 19.6193 33.7804 20.5237 34.7753 19.6645C35.7701 18.8053 35.8606 18.4888 35.8606 18.4888C35.8606 18.4888 37.3076 19.1219 37.8051 18.5792C38.3025 18.0366 40.4731 17.7182 38.8452 13.9115C37.2172 10.1048 33.7352 11.8232 33.7352 11.8232Z" fill="#1C1C1C"/>
</g>
<defs>
<linearGradient id="paint0_linear_1_1537" x1="152.575" y1="59.1442" x2="205.778" y2="87.9466" gradientUnits="userSpaceOnUse">
<stop stop-color="#4D3D8F"/>
<stop offset="0.233393" stop-color="#DF67ED"/>
<stop offset="0.648643" stop-color="#E24C26"/>
<stop offset="0.843317" stop-color="#F18823"/>
<stop offset="1" stop-color="#3AA6C2"/>
</linearGradient>
<linearGradient id="paint1_linear_1_1537" x1="22.2414" y1="64.3385" x2="51.2382" y2="73.2923" gradientUnits="userSpaceOnUse">
<stop stop-color="#4D3D8F"/>
<stop offset="0.233393" stop-color="#DF67ED"/>
<stop offset="0.648643" stop-color="#E24C26"/>
<stop offset="0.843317" stop-color="#F18823"/>
<stop offset="1" stop-color="#3AA6C2"/>
</linearGradient>
</defs>
</svg>
