<svg width="16" height="16" viewBox="0 0 16 16" fill="none" xmlns="http://www.w3.org/2000/svg">
<g id="file-export">
<path id="Primary" d="M9.2 12.8C9.2 13.02 9.02 13.2 8.8 13.2H2.4C2.18 13.2 2 13.02 2 12.8V3.19998C2 2.97998 2.18 2.79998 2.4 2.79998H6.4V4.79998C6.4 5.24248 6.7575 5.59998 7.2 5.59998H9.2V7.99998H10.4V5.46248C10.4 5.03748 10.2325 4.62998 9.9325 4.32998L7.6675 2.06748C7.3675 1.76748 6.9625 1.59998 6.5375 1.59998H2.4C1.5175 1.59998 0.800003 2.31748 0.800003 3.19998V12.8C0.800003 13.6825 1.5175 14.4 2.4 14.4H8.8C9.6825 14.4 10.4 13.6825 10.4 12.8V10.8H9.2V12.8ZM13.025 6.97498C12.79 6.73998 12.41 6.73998 12.1775 6.97498C11.945 7.20998 11.9425 7.58998 12.1775 7.82248L13.1525 8.79748H6.2C5.8675 8.79748 5.6 9.06497 5.6 9.39747C5.6 9.72997 5.8675 9.99747 6.2 9.99747H13.1525L12.1775 10.9725C11.9425 11.2075 11.9425 11.5875 12.1775 11.82C12.4125 12.0525 12.7925 12.055 13.025 11.82L15.025 9.81997C15.26 9.58497 15.26 9.20497 15.025 8.97247L13.025 6.97248V6.97498Z" fill="white"/>
</g>
</svg>
