<svg width="17" height="17" viewBox="0 0 17 17" fill="none" xmlns="http://www.w3.org/2000/svg">
<g id="filter">
<path id="Primary" d="M1.69922 3.79671C1.69922 3.20323 2.19594 2.7207 2.80688 2.7207H14.1916C14.8025 2.7207 15.2992 3.20323 15.2992 3.79671C15.2992 4.04443 15.2116 4.2844 15.0495 4.47535L10.6242 9.75218V13.4472C10.6242 13.9066 10.2391 14.2807 9.76625 14.2807C9.57234 14.2807 9.38375 14.2162 9.23234 14.1001L6.77531 12.2061C6.52031 12.01 6.37422 11.7132 6.37422 11.3984V9.75218L1.94891 4.47535C1.78687 4.2844 1.69922 4.04443 1.69922 3.79671ZM3.16016 3.95927L7.50578 9.14063C7.59875 9.25159 7.64922 9.38835 7.64922 9.53285V11.2978L9.34922 12.6086V9.53285C9.34922 9.39093 9.39969 9.25159 9.49266 9.14063L13.8383 3.95927H3.16016Z" fill="#9D9C9E"/>
</g>
</svg>
