<svg width="68" height="66" viewBox="0 0 68 66" fill="none" xmlns="http://www.w3.org/2000/svg">
<g id="Group">
<path id="Path" fill-rule="evenodd" clip-rule="evenodd" d="M67.5044 32.9965C67.5044 51.2236 52.6428 65.9996 34.3102 65.9996C24.5788 65.9996 15.8255 61.8361 9.75391 55.203L15.4051 50.3194C20.1028 55.3848 26.8338 58.5577 34.3102 58.5577C48.509 58.5577 60.0194 47.1136 60.0194 32.9965C60.0194 29.6447 59.3705 26.4436 58.1909 23.5105L65.2356 20.9805C66.7004 24.7041 67.5044 28.7569 67.5044 32.9965Z" fill="url(#paint0_linear_14808_1985)"/>
<path id="Path_2" fill-rule="evenodd" clip-rule="evenodd" d="M34.9629 0C48.3956 0.257014 59.8743 8.44734 64.856 20.0542L57.8003 22.5894C53.875 13.8452 45.1552 7.69565 34.9629 7.44369L34.9629 0Z" fill="url(#paint1_linear_14808_1985)"/>
<path id="Path_3" fill-rule="evenodd" clip-rule="evenodd" d="M30.2923 0.270265C32.355 0.0116127 34.0673 1.70595 34.0673 3.78478C34.0673 5.80203 32.4485 7.42376 30.4557 7.73669C17.9035 9.70772 8.32276 20.2043 8.32276 32.8572C8.32276 39.0491 10.6171 44.7246 14.4313 49.1372L8.62668 54C3.63806 48.2853 0.632812 40.9094 0.632812 32.8572C0.632812 16.1585 13.5572 2.36879 30.2923 0.270265Z" fill="url(#paint2_linear_14808_1985)"/>
</g>
<defs>
<linearGradient id="paint0_linear_14808_1985" x1="9.75391" y1="20.9805" x2="70.7219" y2="25.8686" gradientUnits="userSpaceOnUse">
<stop stop-color="#3CA8A5"/>
<stop offset="1" stop-color="#46BE6B"/>
</linearGradient>
<linearGradient id="paint1_linear_14808_1985" x1="34.9629" y1="0" x2="66.5086" y2="2.60908" gradientUnits="userSpaceOnUse">
<stop stop-color="#E063C6"/>
<stop offset="1" stop-color="#E2524D"/>
</linearGradient>
<linearGradient id="paint2_linear_14808_1985" x1="0.632813" y1="0" x2="36.1038" y2="1.37263" gradientUnits="userSpaceOnUse">
<stop stop-color="#FCBA31"/>
<stop offset="1" stop-color="#F68435"/>
<stop offset="1" stop-color="#F68435"/>
</linearGradient>
</defs>
</svg>
