<svg width="196" height="195" viewBox="0 0 196 195" fill="none" xmlns="http://www.w3.org/2000/svg">
<g id="Pie chart">
<g id="Background">
<mask id="path-1-inside-1_1_1220" fill="white">
<path d="M195.961 97.5C195.961 151.348 152.309 195 98.4609 195C44.6132 195 0.960938 151.348 0.960938 97.5C0.960938 43.6522 44.6132 0 98.4609 0C152.309 0 195.961 43.6522 195.961 97.5ZM25.3359 97.5C25.3359 137.886 58.0751 170.625 98.4609 170.625C138.847 170.625 171.586 137.886 171.586 97.5C171.586 57.1142 138.847 24.375 98.4609 24.375C58.0751 24.375 25.3359 57.1142 25.3359 97.5Z"/>
</mask>
<path d="M195.961 97.5C195.961 151.348 152.309 195 98.4609 195C44.6132 195 0.960938 151.348 0.960938 97.5C0.960938 43.6522 44.6132 0 98.4609 0C152.309 0 195.961 43.6522 195.961 97.5ZM25.3359 97.5C25.3359 137.886 58.0751 170.625 98.4609 170.625C138.847 170.625 171.586 137.886 171.586 97.5C171.586 57.1142 138.847 24.375 98.4609 24.375C58.0751 24.375 25.3359 57.1142 25.3359 97.5Z" fill="url(#paint0_linear_1_1220)" stroke="#3B3B3C" stroke-width="2" mask="url(#path-1-inside-1_1_1220)"/>
</g>
<g id="Series 1">
<mask id="path-2-inside-2_1_1220" fill="white">
<path d="M0.960933 97.5C0.960933 80.9027 5.19783 64.5802 13.2704 50.0783C21.3429 35.5765 32.9838 23.3754 47.0905 14.6307C61.1972 5.88596 77.3027 0.887112 93.8817 0.107592C110.461 -0.671929 126.964 2.79368 141.829 10.1762L130.987 32.0071C119.838 26.4703 107.461 23.8711 95.0265 24.4557C82.5923 25.0403 70.5131 28.7895 59.9331 35.348C49.353 41.9065 40.6224 51.0573 34.568 61.9337C28.5136 72.8101 25.3359 85.052 25.3359 97.5L0.960933 97.5Z"/>
</mask>
<path d="M0.960933 97.5C0.960933 80.9027 5.19783 64.5802 13.2704 50.0783C21.3429 35.5765 32.9838 23.3754 47.0905 14.6307C61.1972 5.88596 77.3027 0.887112 93.8817 0.107592C110.461 -0.671929 126.964 2.79368 141.829 10.1762L130.987 32.0071C119.838 26.4703 107.461 23.8711 95.0265 24.4557C82.5923 25.0403 70.5131 28.7895 59.9331 35.348C49.353 41.9065 40.6224 51.0573 34.568 61.9337C28.5136 72.8101 25.3359 85.052 25.3359 97.5L0.960933 97.5Z" fill="url(#paint1_linear_1_1220)" stroke="#3B3B3C" stroke-width="2" mask="url(#path-2-inside-2_1_1220)"/>
</g>
</g>
<defs>
<linearGradient id="paint0_linear_1_1220" x1="0.960938" y1="0" x2="207.342" y2="12.8988" gradientUnits="userSpaceOnUse">
<stop stop-color="#E063C6"/>
<stop offset="1" stop-color="#E2524D"/>
</linearGradient>
<linearGradient id="paint1_linear_1_1220" x1="0.960938" y1="195" x2="13.8598" y2="-11.3813" gradientUnits="userSpaceOnUse">
<stop stop-color="#FCBA31"/>
<stop offset="1" stop-color="#F68435"/>
<stop offset="1" stop-color="#F68435"/>
</linearGradient>
</defs>
</svg>
