<svg width="14" height="14" viewBox="0 0 14 14" fill="none" xmlns="http://www.w3.org/2000/svg">
<path id="pie-chart" fill-rule="evenodd" clip-rule="evenodd" d="M12.8813 8.37134C12.5327 8.24734 12.1527 8.42934 12.0307 8.77734C11.2787 10.904 9.25665 12.3327 7.00065 12.3327C4.05998 12.3327 1.66732 9.94067 1.66732 6.99934C1.66732 4.74334 3.09598 2.72134 5.22265 1.96934C5.56998 1.84734 5.75198 1.46667 5.62932 1.11934C5.50665 0.772672 5.12598 0.590006 4.77865 0.713339C2.11998 1.65267 0.333984 4.17867 0.333984 6.99934C0.333984 10.6753 3.32465 13.666 7.00065 13.666C9.82132 13.666 12.3473 11.8807 13.2873 9.22134C13.41 8.87467 13.2287 8.49401 12.8813 8.37134ZM8.33379 5.66621V1.71354C10.3745 2.00687 11.9931 3.62487 12.2865 5.66621H8.33379ZM7.66712 0.333008C7.29912 0.333008 7.00045 0.631008 7.00045 0.999674V6.33301C7.00045 6.70167 7.29912 6.99967 7.66712 6.99967H13.0005C13.3685 6.99967 13.6671 6.70167 13.6671 6.33301C13.6671 3.02434 10.9751 0.333008 7.66712 0.333008Z" fill="#CCCCCC"/>
</svg>
