<svg width="12" height="12" viewBox="0 0 12 12" fill="none" xmlns="http://www.w3.org/2000/svg">
<path id="plus" fill-rule="evenodd" clip-rule="evenodd" d="M10.666 5.33366H6.66602V1.33366C6.66602 0.964992 6.36735 0.666992 5.99935 0.666992C5.63135 0.666992 5.33268 0.964992 5.33268 1.33366V5.33366H1.33268C0.964682 5.33366 0.666016 5.63166 0.666016 6.00033C0.666016 6.36899 0.964682 6.66699 1.33268 6.66699H5.33268V10.667C5.33268 11.0357 5.63135 11.3337 5.99935 11.3337C6.36735 11.3337 6.66602 11.0357 6.66602 10.667V6.66699H10.666C11.034 6.66699 11.3327 6.36899 11.3327 6.00033C11.3327 5.63166 11.034 5.33366 10.666 5.33366Z" fill="white"/>
</svg>
