<svg width="17" height="16" viewBox="0 0 17 16" fill="none" xmlns="http://www.w3.org/2000/svg">
<g id="Locations">
<path id="Fill 1" fill-rule="evenodd" clip-rule="evenodd" d="M15.2517 4.69105H15.1388V2.5768C15.1388 2.41785 15.0029 2.2811 14.8449 2.2811C14.687 2.2811 14.5511 2.41785 14.5511 2.5768V4.69105H13.6025V2.5768C13.6025 2.41785 13.4666 2.2811 13.3086 2.2811C13.1506 2.2811 13.0147 2.41785 13.0147 2.5768V4.69105H12.9247C12.5629 4.69105 12.292 4.98675 12.292 5.32772V6.8284C12.292 7.55564 12.8797 8.12393 13.5795 8.12393H13.6474V11.1927C13.6474 11.6474 13.2636 12.0336 12.8118 12.0336H12.2241C11.7723 12.0336 11.3884 11.6474 11.3884 11.1927V8.01027C11.3884 7.14628 10.7337 6.41904 9.87505 6.32847V2.7366C9.87505 2.09993 9.35529 1.60001 8.74553 1.60001H4.00157C3.36886 1.60001 2.87206 2.12302 2.87206 2.7366V13.0796V13.148C2.5332 13.33 2.28435 13.671 2.28435 14.0804V14.4445H10.3489V14.0804C10.3489 13.7163 10.168 13.3984 9.8741 13.1942C9.8741 13.1489 9.89704 13.1036 9.89704 13.0805L9.89792 7.1916C10.2597 7.28218 10.5527 7.60096 10.5527 8.01032V11.1928C10.5527 12.1252 11.3204 12.8977 12.247 12.8977H12.8347C13.7612 12.8977 14.5289 12.1252 14.5289 11.1928V8.12397H14.5969C15.3196 8.12397 15.8843 7.53258 15.8843 6.82844V5.32777C15.8843 4.98679 15.5905 4.69109 15.2516 4.69109L15.2517 4.69105ZM8.5873 6.76002C8.5873 6.91896 8.4514 7.05571 8.29344 7.05571H4.45309C4.29514 7.05571 4.15924 6.91897 4.15924 6.76002V3.19133C4.15924 3.03239 4.29513 2.89564 4.45309 2.89564H8.31648C8.47444 2.89564 8.61034 3.03238 8.61034 3.19133L8.60946 6.76002H8.5873Z" fill="#E060BC"/>
</g>
</svg>
