<svg width="16" height="16" viewBox="0 0 16 16" fill="none" xmlns="http://www.w3.org/2000/svg">
<g id="Questionmark">
<path id="Primary" d="M13.1996 7.99961C13.1996 6.62048 12.6518 5.29784 11.6766 4.32265C10.7014 3.34746 9.37873 2.79961 7.99961 2.79961C6.62048 2.79961 5.29784 3.34746 4.32265 4.32265C3.34746 5.29784 2.79961 6.62048 2.79961 7.99961C2.79961 9.37873 3.34746 10.7014 4.32265 11.6766C5.29784 12.6518 6.62048 13.1996 7.99961 13.1996C9.37873 13.1996 10.7014 12.6518 11.6766 11.6766C12.6518 10.7014 13.1996 9.37873 13.1996 7.99961ZM1.59961 7.99961C1.59961 6.30222 2.27389 4.67436 3.47413 3.47413C4.67436 2.27389 6.30222 1.59961 7.99961 1.59961C9.69699 1.59961 11.3249 2.27389 12.5251 3.47413C13.7253 4.67436 14.3996 6.30222 14.3996 7.99961C14.3996 9.69699 13.7253 11.3249 12.5251 12.5251C11.3249 13.7253 9.69699 14.3996 7.99961 14.3996C6.30222 14.3996 4.67436 13.7253 3.47413 12.5251C2.27389 11.3249 1.59961 9.69699 1.59961 7.99961ZM5.84461 5.73211C6.04211 5.17461 6.57211 4.79961 7.16461 4.79961H8.62211C9.49461 4.79961 10.1996 5.50711 10.1996 6.37711C10.1996 6.94211 9.89711 7.46461 9.40711 7.74711L8.59961 8.20961C8.59461 8.53461 8.32711 8.79961 7.99961 8.79961C7.66711 8.79961 7.39961 8.53211 7.39961 8.19961V7.86211C7.39961 7.64711 7.51461 7.44961 7.70211 7.34211L8.80961 6.70711C8.92711 6.63961 8.99961 6.51461 8.99961 6.37961C8.99961 6.16961 8.82961 6.00211 8.62211 6.00211H7.16461C7.07961 6.00211 7.00461 6.05461 6.97711 6.13461L6.96711 6.16461C6.85711 6.47711 6.51211 6.63961 6.20211 6.52961C5.89211 6.41961 5.72711 6.07461 5.83711 5.76461L5.84711 5.73461L5.84461 5.73211ZM7.19961 10.3996C7.19961 10.1874 7.28389 9.98395 7.43392 9.83392C7.58395 9.68389 7.78744 9.59961 7.99961 9.59961C8.21178 9.59961 8.41527 9.68389 8.56529 9.83392C8.71532 9.98395 8.79961 10.1874 8.79961 10.3996C8.79961 10.6118 8.71532 10.8153 8.56529 10.9653C8.41527 11.1153 8.21178 11.1996 7.99961 11.1996C7.78744 11.1996 7.58395 11.1153 7.43392 10.9653C7.28389 10.8153 7.19961 10.6118 7.19961 10.3996Z" fill="white"/>
</g>
</svg>
