<svg width="16" height="16" viewBox="0 0 16 16" fill="none" xmlns="http://www.w3.org/2000/svg">
<g id="sliders">
<path id="Primary" d="M1.59961 12C1.59961 12.3325 1.86711 12.6 2.19961 12.6H3.69211C3.94711 13.4125 4.70461 14 5.59961 14C6.49461 14 7.25211 13.4125 7.50711 12.6H13.7996C14.1321 12.6 14.3996 12.3325 14.3996 12C14.3996 11.6675 14.1321 11.4 13.7996 11.4H7.50711C7.25211 10.5875 6.49461 10 5.59961 10C4.70461 10 3.94711 10.5875 3.69211 11.4H2.19961C1.86711 11.4 1.59961 11.6675 1.59961 12ZM4.79961 12C4.79961 11.7878 4.88389 11.5843 5.03392 11.4343C5.18395 11.2843 5.38744 11.2 5.59961 11.2C5.81178 11.2 6.01527 11.2843 6.16529 11.4343C6.31532 11.5843 6.39961 11.7878 6.39961 12C6.39961 12.2122 6.31532 12.4157 6.16529 12.5657C6.01527 12.7157 5.81178 12.8 5.59961 12.8C5.38744 12.8 5.18395 12.7157 5.03392 12.5657C4.88389 12.4157 4.79961 12.2122 4.79961 12ZM9.59961 8C9.59961 7.78783 9.68389 7.58434 9.83392 7.43431C9.98395 7.28429 10.1874 7.2 10.3996 7.2C10.6118 7.2 10.8153 7.28429 10.9653 7.43431C11.1153 7.58434 11.1996 7.78783 11.1996 8C11.1996 8.21217 11.1153 8.41566 10.9653 8.56569C10.8153 8.71571 10.6118 8.8 10.3996 8.8C10.1874 8.8 9.98395 8.71571 9.83392 8.56569C9.68389 8.41566 9.59961 8.21217 9.59961 8ZM10.3996 6C9.50461 6 8.74711 6.5875 8.49211 7.4H2.19961C1.86711 7.4 1.59961 7.6675 1.59961 8C1.59961 8.3325 1.86711 8.6 2.19961 8.6H8.49211C8.74711 9.4125 9.50461 10 10.3996 10C11.2946 10 12.0521 9.4125 12.3071 8.6H13.7996C14.1321 8.6 14.3996 8.3325 14.3996 8C14.3996 7.6675 14.1321 7.4 13.7996 7.4H12.3071C12.0521 6.5875 11.2946 6 10.3996 6ZM6.39961 4.8C6.18744 4.8 5.98395 4.71571 5.83392 4.56569C5.68389 4.41566 5.59961 4.21217 5.59961 4C5.59961 3.78783 5.68389 3.58434 5.83392 3.43431C5.98395 3.28429 6.18744 3.2 6.39961 3.2C6.61178 3.2 6.81527 3.28429 6.96529 3.43431C7.11532 3.58434 7.19961 3.78783 7.19961 4C7.19961 4.21217 7.11532 4.41566 6.96529 4.56569C6.81527 4.71571 6.61178 4.8 6.39961 4.8ZM8.30711 3.4C8.05211 2.5875 7.29461 2 6.39961 2C5.50461 2 4.74711 2.5875 4.49211 3.4H2.19961C1.86711 3.4 1.59961 3.6675 1.59961 4C1.59961 4.3325 1.86711 4.6 2.19961 4.6H4.49211C4.74711 5.4125 5.50461 6 6.39961 6C7.29461 6 8.05211 5.4125 8.30711 4.6H13.7996C14.1321 4.6 14.3996 4.3325 14.3996 4C14.3996 3.6675 14.1321 3.4 13.7996 3.4H8.30711Z" fill="white"/>
</g>
</svg>
