<svg width="22" height="18" viewBox="0 0 22 18" fill="none" xmlns="http://www.w3.org/2000/svg">
<g id="Group 6">
<path id="Path" fill-rule="evenodd" clip-rule="evenodd" d="M20.5599 3.4038L13.9768 3.4038V0.760441C13.9768 0.585319 13.9077 0.416804 13.7842 0.292904C13.6608 0.168996 13.4929 0.0996094 13.3185 0.0996094L8.05203 0.0996094C7.68831 0.0996094 7.39373 0.395327 7.39373 0.760449L7.39373 3.40381L0.810651 3.40381C0.446928 3.40381 0.152344 3.69953 0.152344 4.06465L0.152344 7.03832C0.167979 7.84125 0.499593 8.6045 1.07562 9.1621C1.65164 9.71968 2.42349 10.0253 3.22328 10.0121L8.7103 10.0121V9.02084C8.7103 8.29062 9.29949 7.69916 10.0269 7.69916H11.3435C11.6924 7.69916 12.0273 7.83876 12.2742 8.08657C12.5211 8.33438 12.6601 8.67059 12.6601 9.02084V10.0121H18.1472C18.947 10.0253 19.7189 9.71968 20.2948 9.1621C20.8709 8.60452 21.2025 7.84125 21.2181 7.03832V4.06465C21.2181 3.88953 21.149 3.72101 21.0255 3.59711C20.9021 3.4732 20.7342 3.40382 20.5598 3.40382L20.5599 3.4038Z" fill="url(#paint0_linear_14808_1972)"/>
<path id="Path_2" fill-rule="evenodd" clip-rule="evenodd" d="M12.6608 3.40342L8.71094 3.40342V1.4209L12.6608 1.4209V3.40342Z" fill="url(#paint1_linear_14808_1972)"/>
<path id="Path_3" fill-rule="evenodd" clip-rule="evenodd" d="M21.2182 9.09669L21.2182 16.6203C21.2182 16.7954 21.1491 16.964 21.0256 17.0879C20.9022 17.2118 20.7343 17.2812 20.5599 17.2812L0.810651 17.2812C0.446929 17.2812 0.152344 16.9854 0.152344 16.6203L0.152344 9.09668C0.861673 10.0904 2.00548 10.6777 3.22332 10.6728L8.71034 10.6728V11.664C8.71034 12.0143 8.84941 12.3505 9.09627 12.5983C9.34313 12.8461 9.67805 12.9857 10.027 12.9857L11.3436 12.9857C11.6925 12.9857 12.0274 12.8461 12.2743 12.5983C12.5211 12.3505 12.6602 12.0143 12.6602 11.664V10.6728H18.1472C19.3651 10.6777 20.5089 10.0904 21.2182 9.09668V9.09669Z" fill="url(#paint2_linear_14808_1972)"/>
<path id="Path_4" fill-rule="evenodd" clip-rule="evenodd" d="M10.0274 12.3254C9.66373 12.3254 9.36914 12.0297 9.36914 11.6646V9.02119C9.36914 8.65607 9.66373 8.36035 10.0274 8.36035H11.3441C11.5185 8.36035 11.6864 8.42974 11.8098 8.55365C11.9332 8.67755 12.0024 8.84607 12.0024 9.02118V11.6645C12.0024 11.8397 11.9332 12.0082 11.8098 12.1321C11.6864 12.256 11.5185 12.3254 11.3441 12.3254L10.0274 12.3254Z" fill="url(#paint3_linear_14808_1972)"/>
</g>
<defs>
<linearGradient id="paint0_linear_14808_1972" x1="0.152344" y1="0.0996094" x2="22.1467" y2="3.02085" gradientUnits="userSpaceOnUse">
<stop stop-color="#3CA8A5"/>
<stop offset="1" stop-color="#46BE6B"/>
</linearGradient>
<linearGradient id="paint1_linear_14808_1972" x1="8.71094" y1="1.4209" x2="12.8436" y2="1.9355" gradientUnits="userSpaceOnUse">
<stop stop-color="#3CA8A5"/>
<stop offset="1" stop-color="#46BE6B"/>
</linearGradient>
<linearGradient id="paint2_linear_14808_1972" x1="0.152344" y1="9.09668" x2="21.9702" y2="12.6065" gradientUnits="userSpaceOnUse">
<stop stop-color="#3CA8A5"/>
<stop offset="1" stop-color="#46BE6B"/>
</linearGradient>
<linearGradient id="paint3_linear_14808_1972" x1="9.36914" y1="8.36035" x2="12.1621" y2="8.47628" gradientUnits="userSpaceOnUse">
<stop stop-color="#3CA8A5"/>
<stop offset="1" stop-color="#46BE6B"/>
</linearGradient>
</defs>
</svg>
