<svg width="17" height="15" viewBox="0 0 17 15" fill="none" xmlns="http://www.w3.org/2000/svg">
<path d="M8.61992 2.13438C8.66992 2.05 8.76055 2 8.85742 2C8.9543 2 9.04492 2.05 9.09492 2.13438L15.2918 12.3125C15.3355 12.3844 15.3574 12.4656 15.3574 12.5469C15.3574 12.7969 15.1543 13 14.9043 13H2.81055C2.56055 13 2.35742 12.7969 2.35742 12.5469C2.35742 12.4625 2.3793 12.3813 2.42305 12.3125L8.61992 2.13438ZM7.33867 1.35312L1.1418 11.5312C0.954297 11.8375 0.857422 12.1875 0.857422 12.5469C0.857422 13.625 1.73242 14.5 2.81055 14.5H14.9043C15.9824 14.5 16.8574 13.625 16.8574 12.5469C16.8574 12.1875 16.7574 11.8375 16.573 11.5312L10.3762 1.35312C10.0543 0.825 9.4793 0.5 8.85742 0.5C8.23555 0.5 7.66055 0.825 7.33867 1.35312ZM9.85742 11C9.85742 10.7348 9.75206 10.4804 9.56453 10.2929C9.37699 10.1054 9.12264 10 8.85742 10C8.59221 10 8.33785 10.1054 8.15032 10.2929C7.96278 10.4804 7.85742 10.7348 7.85742 11C7.85742 11.2652 7.96278 11.5196 8.15032 11.7071C8.33785 11.8946 8.59221 12 8.85742 12C9.12264 12 9.37699 11.8946 9.56453 11.7071C9.75206 11.5196 9.85742 11.2652 9.85742 11ZM9.60742 5.25C9.60742 4.83437 9.27305 4.5 8.85742 4.5C8.4418 4.5 8.10742 4.83437 8.10742 5.25V8.25C8.10742 8.66562 8.4418 9 8.85742 9C9.27305 9 9.60742 8.66562 9.60742 8.25V5.25Z" fill="#FFE444"/>
</svg>
